<svg width="12" height="18" viewBox="0 0 12 18" fill="none" xmlns="http://www.w3.org/2000/svg">
<path d="M1.83335 2.33329V15.6666H10.1667V2.33329H1.83335ZM1.00002 0.666626H11C11.221 0.666626 11.433 0.754423 11.5893 0.910704C11.7456 1.06698 11.8334 1.27895 11.8334 1.49996V16.5C11.8334 16.721 11.7456 16.9329 11.5893 17.0892C11.433 17.2455 11.221 17.3333 11 17.3333H1.00002C0.779007 17.3333 0.567045 17.2455 0.410765 17.0892C0.254485 16.9329 0.166687 16.721 0.166687 16.5V1.49996C0.166687 1.27895 0.254485 1.06698 0.410765 0.910704C0.567045 0.754423 0.779007 0.666626 1.00002 0.666626ZM6.00002 13.1666C6.22104 13.1666 6.433 13.2544 6.58928 13.4107C6.74556 13.567 6.83335 13.7789 6.83335 14C6.83335 14.221 6.74556 14.4329 6.58928 14.5892C6.433 14.7455 6.22104 14.8333 6.00002 14.8333C5.77901 14.8333 5.56705 14.7455 5.41077 14.5892C5.25449 14.4329 5.16669 14.221 5.16669 14C5.16669 13.7789 5.25449 13.567 5.41077 13.4107C5.56705 13.2544 5.77901 13.1666 6.00002 13.1666Z" fill="#00D74A"/>
</svg>
