<svg width="18" height="18" viewBox="0 0 18 18" fill="none" xmlns="http://www.w3.org/2000/svg">
<path d="M11.845 4.16667H16.5066C16.9633 4.16667 17.3333 4.5375 17.3333 5V16.6667C17.3333 17.1267 16.9541 17.5 16.5066 17.5H1.49331C1.38425 17.4998 1.2763 17.478 1.17567 17.436C1.07504 17.394 0.983699 17.3325 0.906892 17.255C0.830085 17.1776 0.769324 17.0858 0.728095 16.9848C0.686867 16.8838 0.665983 16.7757 0.666641 16.6667V5C0.666641 4.54 1.04581 4.16667 1.49331 4.16667H6.15497L4.04164 2.05333L5.21997 0.875L8.51164 4.16667H9.48831L12.78 0.875L13.9583 2.05333L11.845 4.16667ZM2.33331 5.83333V15.8333H15.6666V5.83333H2.33331Z" fill="black"/>
</svg>
