<svg width="18" height="18" viewBox="0 0 18 18" fill="none" xmlns="http://www.w3.org/2000/svg">
<path d="M5.0758 16.3534L0.666635 17.3334L1.64664 12.9242C1.00125 11.717 0.664574 10.3689 0.666635 9.00002C0.666635 4.39752 4.39747 0.666687 8.99997 0.666687C13.6025 0.666687 17.3333 4.39752 17.3333 9.00002C17.3333 13.6025 13.6025 17.3334 8.99997 17.3334C7.6311 17.3354 6.28298 16.9987 5.0758 16.3534ZM5.31747 14.5925L5.86164 14.8842C6.82709 15.4001 7.9053 15.669 8.99997 15.6667C10.3185 15.6667 11.6074 15.2757 12.7038 14.5432C13.8001 13.8106 14.6546 12.7694 15.1592 11.5512C15.6638 10.3331 15.7958 8.99263 15.5385 7.69942C15.2813 6.40621 14.6464 5.21833 13.714 4.28598C12.7817 3.35363 11.5938 2.71869 10.3006 2.46145C9.00736 2.20422 7.66692 2.33624 6.44875 2.84082C5.23057 3.34541 4.18938 4.19989 3.45684 5.29622C2.7243 6.39255 2.3333 7.68148 2.3333 9.00002C2.3333 10.1117 2.60414 11.1817 3.11664 12.1384L3.40747 12.6825L2.86164 15.1384L5.31747 14.5925Z" fill="black"/>
</svg>
