<svg width="18" height="18" viewBox="0 0 18 18" fill="none" xmlns="http://www.w3.org/2000/svg">
<path d="M8.99999 17.3334C4.39749 17.3334 0.666656 13.6025 0.666656 9.00002C0.666656 4.39752 4.39749 0.666687 8.99999 0.666687C13.6025 0.666687 17.3333 4.39752 17.3333 9.00002C17.3333 13.6025 13.6025 17.3334 8.99999 17.3334ZM7.09166 15.3892C6.2695 13.6453 5.79322 11.7585 5.68916 9.83335H2.38499C2.54715 11.1158 3.07826 12.3235 3.9138 13.3098C4.74934 14.2961 5.85333 15.0185 7.09166 15.3892ZM7.35832 9.83335C7.48416 11.8659 8.06499 13.775 8.99999 15.46C9.96026 13.7305 10.5212 11.8079 10.6417 9.83335H7.35832ZM15.615 9.83335H12.3108C12.2068 11.7585 11.7305 13.6453 10.9083 15.3892C12.1466 15.0185 13.2506 14.2961 14.0862 13.3098C14.9217 12.3235 15.4528 11.1158 15.615 9.83335ZM2.38499 8.16669H5.68916C5.79322 6.24151 6.2695 4.35476 7.09166 2.61085C5.85333 2.98159 4.74934 3.70398 3.9138 4.69027C3.07826 5.67655 2.54715 6.88427 2.38499 8.16669ZM7.35916 8.16669H10.6408C10.5206 6.19219 9.95997 4.26963 8.99999 2.54002C8.03972 4.26956 7.47879 6.19212 7.35832 8.16669H7.35916ZM10.9083 2.61085C11.7305 4.35476 12.2068 6.24151 12.3108 8.16669H15.615C15.4528 6.88427 14.9217 5.67655 14.0862 4.69027C13.2506 3.70398 12.1466 2.98159 10.9083 2.61085Z" fill="black"/>
</svg>
